<?xml version="1.0" standalone="no"?>
<!DOCTYPE svg PUBLIC "-//W3C//DTD SVG 20010904//EN"
 "http://www.w3.org/TR/2001/REC-SVG-20010904/DTD/svg10.dtd">
<svg version="1.0" xmlns="http://www.w3.org/2000/svg"
 width="200.000000pt" height="200.000000pt" viewBox="0 0 200.000000 200.000000"
 preserveAspectRatio="xMidYMid meet">

<g transform="translate(0.000000,200.000000) scale(0.100000,-0.100000)"
fill="#000000" stroke="none">
<path d="M669 1632 c-66 -42 -85 -102 -54 -175 40 -96 146 -110 248 -33 66 50
102 56 342 56 140 0 235 -4 256 -11 19 -7 61 -30 94 -53 51 -35 68 -41 111
-41 92 0 157 78 140 168 -9 47 -36 79 -85 101 -50 23 -94 16 -150 -24 -88 -64
-128 -73 -330 -78 -244 -5 -312 9 -422 90 -45 34 -97 34 -150 0z"/>
<path d="M1100 1249 c-24 -11 -76 -51 -115 -88 -109 -106 -134 -114 -351 -119
-205 -4 -246 5 -343 72 -36 24 -64 36 -87 36 -135 0 -199 -154 -103 -246 27
-26 37 -29 94 -29 50 0 68 4 87 21 13 12 50 34 83 50 60 29 61 29 250 29 190
0 190 0 250 -29 35 -18 86 -56 125 -94 79 -79 133 -106 215 -106 108 0 195 57
241 158 78 172 -49 366 -241 366 -39 0 -76 -8 -105 -21z"/>
<path d="M1750 1132 c-19 -9 -45 -33 -58 -52 -20 -29 -23 -44 -19 -90 4 -49 8
-58 47 -92 37 -33 49 -38 90 -38 90 0 150 58 150 145 0 111 -110 178 -210 127z"/>
<path d="M705 642 c-110 -38 -140 -174 -55 -245 58 -49 110 -48 188 3 106 68
140 75 367 75 227 0 246 -4 355 -70 44 -26 87 -45 105 -45 71 0 145 70 145
137 0 127 -129 190 -234 115 -102 -74 -116 -77 -371 -77 -254 0 -268 3 -368
74 -44 31 -98 44 -132 33z"/>
</g>
</svg>
