<?xml version="1.0" encoding="UTF-8"?>
<svg width="598px" height="222px" viewBox="0 0 598 222" version="1.1" xmlns="http://www.w3.org/2000/svg" xmlns:xlink="http://www.w3.org/1999/xlink">
    <!-- Generator: Sketch 49 (51002) - http://www.bohemiancoding.com/sketch -->
    <title>shl-logo</title>
    <desc>Created with Sketch.</desc>
    <defs></defs>
    <g id="shl-logo" stroke="none" stroke-width="1" fill="none" fill-rule="evenodd">
        <path d="M33.2,204.8605 C33.2,214.0285 25.768,221.4615 16.6,221.4615 C7.432,221.4615 0,214.0285 0,204.8605 C0,195.6925 7.432,188.2605 16.6,188.2605 C25.768,188.2605 33.2,195.6925 33.2,204.8605" id="Fill-1" fill="#78D64B"></path>
        <path d="M580.934,221.4615 C571.766,221.4615 564.334,214.0285 564.334,204.8605 C564.334,195.6925 571.766,188.2605 580.934,188.2605 C590.102,188.2605 597.534,195.6925 597.534,204.8605 C597.534,214.0285 590.102,221.4615 580.934,221.4615 Z" id="Fill-3" fill="#78D64B"></path>
        <path d="M323.25575,125.2472 L280.00575,125.2472 C272.27975,125.2472 266.01775,118.9852 266.01775,111.2602 C266.01775,103.5352 272.27975,97.2722 280.00575,97.2722 L323.25575,97.2722 C330.98175,97.2722 337.24375,103.5352 337.24375,111.2602 C337.24375,118.9852 330.98175,125.2472 323.25575,125.2472" id="Fill-5" fill="#78D64B"></path>
        <path d="M195.9001,2.5226 L126.4071,2.5226 C92.9081,2.5226 65.6551,29.7756 65.6551,63.2736 C65.6551,93.8366 85.5041,116.4296 117.7581,123.0806 C118.5201,123.3686 119.3121,123.6056 120.1411,123.7606 C149.9861,129.3426 153.2081,148.7096 153.2081,156.7756 C153.2081,174.8486 138.5051,189.5516 120.4321,189.5516 L63.1851,189.5516 C55.4601,189.5516 49.1971,195.8146 49.1971,203.5406 C49.1971,211.2646 55.4601,217.5276 63.1851,217.5276 L120.4321,217.5276 C153.9311,217.5276 181.1841,190.2746 181.1841,156.7756 C181.1841,140.7846 175.3321,126.5386 164.2611,115.5796 C155.3841,106.7896 143.4771,100.4916 129.6411,97.1986 C128.5971,96.7516 127.4901,96.4096 126.3171,96.2236 C99.3001,91.9406 93.6301,75.9416 93.6301,63.2736 C93.6301,45.2016 108.3341,30.4976 126.4071,30.4976 L195.9001,30.4976 C203.6251,30.4976 209.8881,24.2356 209.8881,16.5106 C209.8881,8.7846 203.6251,2.5226 195.9001,2.5226" id="Fill-7" fill="#5B6770"></path>
        <path d="M245.7018,221.5197 C237.9758,221.5197 231.7138,215.2577 231.7138,207.5327 L231.7138,14.9877 C231.7138,7.2627 237.9758,0.9997 245.7018,0.9997 C253.4268,0.9997 259.6888,7.2627 259.6888,14.9877 L259.6888,207.5327 C259.6888,215.2577 253.4268,221.5197 245.7018,221.5197" id="Fill-9" fill="#5B6770"></path>
        <path d="M357.5607,221.5197 C349.8347,221.5197 343.5727,215.2577 343.5727,207.5327 L343.5727,14.9877 C343.5727,7.2627 349.8347,0.9997 357.5607,0.9997 C365.2857,0.9997 371.5477,7.2627 371.5477,14.9877 L371.5477,207.5327 C371.5477,215.2577 365.2857,221.5197 357.5607,221.5197" id="Fill-12" fill="#5B6770"></path>
        <path d="M534.8381,217.2492 L478.9771,217.2492 C445.4781,217.2492 418.2241,189.9962 418.2241,156.4972 L418.2241,16.1622 C418.2241,8.4372 424.4861,2.1742 432.2121,2.1742 C439.9381,2.1742 446.1991,8.4372 446.1991,16.1622 L446.1991,156.4972 C446.1991,174.5692 460.9031,189.2732 478.9771,189.2732 L534.8381,189.2732 C542.5631,189.2732 548.8251,195.5352 548.8251,203.2612 C548.8251,210.9862 542.5631,217.2492 534.8381,217.2492" id="Fill-15" fill="#5B6770"></path>
    </g>
</svg>